<?xml version="1.0" standalone="no"?><!DOCTYPE svg PUBLIC "-//W3C//DTD SVG 1.1//EN" "http://www.w3.org/Graphics/SVG/1.1/DTD/svg11.dtd"><svg t="1513827176005" class="icon" style="" viewBox="0 0 1024 1024" version="1.1" xmlns="http://www.w3.org/2000/svg" p-id="4475" xmlns:xlink="http://www.w3.org/1999/xlink" width="200" height="200"><defs><style type="text/css"></style></defs><path d="M613.5 385c-65.872 0-126.731 21.424-176.024 57.663-11.053-34.644-33.402-64.132-33.402-64.132s-45.436 56.768-39.955 99.949c1.412 9.51 6.383 17.418 13.298 23.003C338.908 551.631 316 614.386 316 682.5c0 19.321 1.864 38.205 5.382 56.5h584.236A298.958 298.958 0 0 0 911 682.5C911 518.195 777.805 385 613.5 385z" fill="#FFFFFF" p-id="4476"></path><path d="M466.32 666.512c-33.414 0-60.5 27.08-60.5 60.494 0 3.408 0.296 6.994 0.838 9.994h14.252c-0.707-3-1.09-6.56-1.09-9.994 0-25.682 20.818-46.497 46.5-46.497s46.5 20.813 46.5 46.495c0 3.436-0.383 6.996-1.09 9.996h14.252c0.542-3 0.838-6.586 0.838-9.994 0-33.414-27.088-60.494-60.5-60.494z m24.261-117.557c16.126 0 29.198-13.072 29.198-29.197s-13.072-29.197-29.198-29.197c-16.125 0-29.197 13.072-29.197 29.197s13.072 29.197 29.197 29.197zM449 713.012a7 7 0 0 0-7 7v24a7 7 0 1 0 14 0v-24a7 7 0 0 0-7-7z m36 0a7 7 0 0 0-7 7v24a7 7 0 1 0 14 0v-24a7 7 0 0 0-7-7z m130.995-134.619c-18.647 0-33.903 19.391-35.205 43.813a8.259 8.259 0 0 0-0.214 1.846c0 4.309 3.492 7.605 7.803 7.605 4.194 0 7.604-2.656 7.785-7.656h0.338c0.409-16 8.977-29.709 19.493-29.709 10.379 0 18.856 13.068 19.468 29.41-0.004 0.099-0.016 0.252-0.016 0.35 0 4.309 3.492 7.605 7.803 7.605 4.194 0 7.604-2.656 7.785-7.656h0.245c-0.497-25.001-16.098-45.608-35.285-45.608zM791 713.012a7 7 0 0 0-7 7v24a7 7 0 1 0 14 0v-24a7 7 0 0 0-7-7z m-36 0a7 7 0 0 0-7 7v24a7 7 0 1 0 14 0v-24a7 7 0 0 0-7-7z m-54.511-320.436c27.15-38.044 67.528-66.571 115.624-78.189 5.417 15.521 20.177 26.662 37.547 26.662 21.965 0 39.77-17.805 39.77-39.768 0-21.965-17.805-39.77-39.77-39.77-20.659 0-37.634 15.754-39.579 35.903-55.28 12.811-101.311 46.175-131.089 90.636-21.589-4.891-44.049-7.484-67.117-7.484-63.137 0-121.748 19.328-170.25 52.379-14.528-39.862-40.262-72.625-40.262-72.625s-58.345 70.088-51.541 123.213c1.575 10.461 6.792 19.335 14.179 25.988-34.444 49.093-54.673 108.887-54.673 173.436 0 22.742 2.527 45.043 7.284 66.043h14.699a287.61 287.61 0 0 1-7.438-65.143c0-61.866 19.513-119.159 52.711-166.084 8.558 3.959 18.358 5.721 28.232 4.752 25.27-2.479 48.146-18.096 46.289-47.481-0.568-8.979-2.241-18.034-4.643-26.908 46.809-32.886 103.85-52.201 165.411-52.201 159.058 0 288 128.825 288 287.884 0 22.46-2.574 44.182-7.438 65.182h14.699c4.757-21 7.284-43.301 7.284-66.043 0.002-137.718-92.022-253.774-217.929-290.382zM408.08 512.336c-20.193 1.98-40.07-11.162-43.141-31.844-5.481-43.182 39.955-99.949 39.955-99.949s36.324 47.922 39.258 93.355c1.541 23.879-16.31 36.498-36.072 38.438z m362.394 7.422c0-16.125-13.072-29.197-29.198-29.197-16.124 0-29.197 13.072-29.197 29.197s13.073 29.197 29.197 29.197c16.125 0 29.198-13.072 29.198-29.197z m1.846 146.754c-33.414 0-60.5 27.08-60.5 60.494 0 3.408 0.296 6.994 0.838 9.994h14.252c-0.707-3-1.09-6.56-1.09-9.994 0-25.682 20.818-46.497 46.5-46.497s46.5 20.813 46.5 46.495c0 3.436-0.383 6.996-1.09 9.996h14.252c0.542-3 0.838-6.586 0.838-9.994 0-33.414-27.088-60.494-60.5-60.494z" fill="#5F85B5" p-id="4477"></path><path d="M243.157 744.275c0 6.673-5.409 12.082-12.082 12.082H76.027c-6.672 0-12.082-5.409-12.082-12.082 0-6.672 5.409-12.081 12.082-12.081h155.048c6.673 0 12.082 5.41 12.082 12.081zM960.055 744.275c0 6.673-5.408 12.082-12.081 12.082h-678.64c-6.672 0-12.082-5.409-12.082-12.082 0-6.672 5.409-12.081 12.082-12.081h678.64c6.672 0 12.081 5.41 12.081 12.081z" fill="#5F85B5" p-id="4478"></path><path d="M281.349 804h-75.041c-6.673 0-12.082 5.328-12.082 12s5.409 12 12.082 12h75.041c6.672 0 12.081-5.328 12.081-12s-5.409-12-12.081-12zM819.692 804h-28.576c-6.673 0-12.081 5.328-12.081 12s5.408 12 12.081 12h28.576c6.672 0 12.081-5.328 12.081-12s-5.409-12-12.081-12zM749.686 804H644.102c-6.673 0-12.081 5.328-12.081 12s5.408 12 12.081 12h105.584c6.672 0 12.081-5.328 12.081-12s-5.41-12-12.081-12zM601.688 804H323.087c-6.673 0-12.081 5.328-12.081 12s5.408 12 12.081 12h278.601c6.672 0 12.082-5.328 12.082-12s-5.411-12-12.082-12z" fill="#CBE2F5" p-id="4479"></path><path d="M490 504m-10 0a10 10 0 1 0 20 0 10 10 0 1 0-20 0Z" fill="#CBE2F5" p-id="4480"></path><path d="M740 504m-10 0a10 10 0 1 0 20 0 10 10 0 1 0-20 0Z" fill="#CBE2F5" p-id="4481"></path><path d="M737.846 605.043l20.506-20.506c4.296-4.296 4.296-11.261 0-15.557s-11.261-4.296-15.557 0l-20.506 20.506c-4.296 4.296-4.296 11.261 0 15.557s11.261 4.296 15.557 0zM800.852 584.537c4.296-4.296 4.296-11.261 0-15.557s-11.261-4.296-15.557 0l-20.506 20.506c-4.296 4.296-4.296 11.261 0 15.557s11.261 4.296 15.557 0l20.506-20.506zM843.352 568.98c-4.296-4.296-11.261-4.296-15.557 0l-20.506 20.506c-4.296 4.296-4.296 11.261 0 15.557s11.261 4.296 15.557 0l20.506-20.506c4.295-4.296 4.295-11.261 0-15.557zM410.795 568.98l-20.506 20.506c-4.296 4.296-4.296 11.261 0 15.557s11.261 4.296 15.557 0l20.506-20.506c4.296-4.296 4.296-11.261 0-15.557s-11.261-4.295-15.557 0zM432.789 605.043c4.296 4.296 11.261 4.296 15.557 0l20.506-20.506c4.296-4.296 4.296-11.261 0-15.557s-11.261-4.296-15.557 0l-20.506 20.506c-4.296 4.296-4.296 11.261 0 15.557zM475.289 605.043c4.296 4.296 11.261 4.296 15.557 0l20.506-20.506c4.296-4.296 4.296-11.261 0-15.557s-11.261-4.296-15.557 0l-20.506 20.506c-4.296 4.296-4.296 11.261 0 15.557zM412.3 511.773c18.712-1.836 35.616-13.785 34.157-36.396-2.778-43.021-37.173-88.397-37.173-88.397s-43.023 53.753-37.833 94.642c2.907 19.582 21.728 32.026 40.849 30.151z" fill="#CBE2F5" p-id="4482"></path><path d="M138.133 221.313c-5.375-4.5-12.688-7.104-21.938-7.813l-15.938-0.875c-3.042-0.416-5.323-1.135-6.844-2.156-1.521-1.021-2.281-2.322-2.281-3.906 0-3.041 2.5-5.854 7.5-8.438 4.833-2.541 9.938-3.833 15.313-3.875 2 0 4.947 0.417 8.844 1.25 3.896 0.834 6.822 1.25 8.781 1.25 2.625 0 4.771-0.938 6.438-2.813 1.5-1.666 2.25-3.583 2.25-5.75 0-3.041-3.729-5.729-11.188-8.063-6-1.875-11.042-2.813-15.125-2.813-10.292 0-19.709 3.386-28.25 10.156-8.542 6.771-12.875 14.219-13 22.344-0.125 6.459 3.666 11.417 11.375 14.875 5.708 2.542 12.166 3.896 19.375 4.063 9.291 0.209 15.479 0.917 18.563 2.125 4.333 1.667 6.5 5.125 6.5 10.375 0 3.834-3.479 7.354-10.438 10.563-6.709 3.125-13.646 4.688-20.813 4.688-8.375 0-13.75-2.563-16.125-7.688-1.75-3.833-4.5-5.75-8.25-5.75-2.792 0-4.979 0.865-6.563 2.594-1.584 1.729-2.375 3.906-2.375 6.531 0 5.125 2.563 9.646 7.688 13.563 6.083 4.708 14.416 7.063 25 7.063 12 0 22.666-2.104 32-6.313 12.25-5.541 18.375-13.688 18.375-24.438 0.001-8.833-2.958-15.749-8.874-20.749zM186.383 204.188c-11.292 0-20.104 4.25-26.438 12.75-5.334 7.209-7.854 15.417-7.563 24.625 0.291 9.667 3.479 17.396 9.563 23.188 5.541 5.291 12.166 7.938 19.875 7.938 9.75 0 17.521-3.813 23.313-11.438 5.166-6.833 7.75-15.083 7.75-24.75 0-8.875-2.209-16.313-6.625-22.313-4.917-6.667-11.542-10-19.875-10z m9.75 36.687c-0.209 4.917-1.834 8.813-4.875 11.688-2.667 2.459-5.813 3.688-9.438 3.688-3 0-5.625-1.063-7.875-3.188-2.834-2.666-4.25-6.5-4.25-11.5 0-5.291 1.25-9.916 3.75-13.875 2.958-4.708 7-7.041 12.125-7 7.583 0.041 11.104 6.771 10.563 20.187zM263.32 203.125c-9 0-17.188 2.75-24.563 8.25-0.875-4.75-3.625-7.125-8.25-7.125-2.584 0-4.573 0.781-5.969 2.344-1.396 1.563-2.094 3.511-2.094 5.844 0 1.292-0.14 3.219-0.223 5.781-0.084 2.563-0.223 4.49-0.223 5.781v40.938c0 2.334 0.764 4.25 2.098 5.75 1.416 1.666 3.465 2.5 6.049 2.5 2.5 0 4.587-0.781 6.212-2.344s2.45-3.531 2.45-5.906l-0.056-31.438c4.041-8.125 10.753-12.938 20.128-14.438l0.314 6.313c0 5.417 2.625 8.125 7.875 8.125 5.416 0 8.313-3.188 8.688-9.563 0.041-0.666 0.063-2.063 0.063-4.188 0.001-11.082-4.166-16.624-12.499-16.624zM324.82 203.125c-9 0-17.188 2.75-24.563 8.25-0.875-4.75-3.625-7.125-8.25-7.125-2.584 0-4.573 0.781-5.969 2.344-1.396 1.563-2.094 3.511-2.094 5.844 0 1.292 0.11 3.219 0.027 5.781-0.084 2.563 0.027 4.49 0.027 5.781v40.938c0 2.334 0.514 4.25 1.848 5.75 1.416 1.666 3.34 2.5 5.924 2.5 2.5 0 4.524-0.781 6.149-2.344s2.418-3.531 2.418-5.906l-0.072-31.438c4.041-8.125 10.745-12.938 20.12-14.438l0.31 6.313c0 5.417 2.624 8.125 7.874 8.125 5.416 0 8.312-3.188 8.687-9.563 0.041-0.666 0.062-2.063 0.062-4.188 0.002-11.082-4.165-16.624-12.498-16.624zM406.82 206.375c-1.834-1.583-3.917-2.375-6.25-2.375-3.125 0-5.584 1.5-7.375 4.5-2.834 4.709-5.729 10.167-8.688 16.375-0.959 2.042-3.667 8-8.125 17.875-7.875-15.833-14.771-27.688-20.688-35.563-1.542-2.041-3.688-3.063-6.438-3.063-2.334 0-4.396 0.854-6.188 2.563-1.792 1.709-2.688 3.688-2.688 5.938 0 1.584 0.563 3.334 1.688 5.25a862.58 862.58 0 0 1 3.063 4.813c9.958 17.584 17.229 30.896 21.813 39.938-8.834 19.083-13.25 30.563-13.25 34.438 0 2.333 0.896 4.271 2.688 5.813 1.791 1.541 3.875 2.313 6.25 2.313 3.833 0 6.5-1.959 8-5.875 1.875-5.084 3.25-8.917 4.125-11.5 2.791-7.167 6.854-16.188 12.188-27.063 9.833-20.25 17.021-35.104 21.563-44.563 0.708-1.458 1.063-2.791 1.063-4-0.001-2.293-0.918-4.23-2.751-5.814zM475.57 212.813c-3.792 0-6.688 2.709-8.688 8.125-1.209 3.292-1.979 4.917-2.313 4.875-2.459-0.166-4.979-1.563-7.563-4.188-4.459-4.625-6.792-7.021-7-7.188-3.209-2.541-6.854-3.813-10.938-3.813-5.375 0-10.438 1.834-15.188 5.5-3.875 3-7 6.729-9.375 11.188-0.584 1.084-0.875 2.125-0.875 3.125 0 1.917 0.875 3.542 2.625 4.875 1.625 1.25 3.521 1.875 5.688 1.875 2.958 0 5.291-1.25 7-3.75 4.083-6 7.458-9 10.125-9l1.375 1.563c4.333 4.834 7.583 8 9.75 9.5 4.083 2.875 8.75 4.313 14 4.313 5.458 0 10.166-2.188 14.125-6.563 3.625-3.916 5.438-8.083 5.438-12.5 0.002-5.291-2.728-7.937-8.186-7.937z" fill="#5F85B5" p-id="4483"></path></svg>