<?xml version="1.0" encoding="utf-8"?>
<!-- Generator: Adobe Illustrator 18.0.0, SVG Export Plug-In . SVG Version: 6.00 Build 0)  -->
<!DOCTYPE svg PUBLIC "-//W3C//DTD SVG 1.1//EN" "http://www.w3.org/Graphics/SVG/1.1/DTD/svg11.dtd">
<svg version="1.1" id="图形" xmlns="http://www.w3.org/2000/svg" xmlns:xlink="http://www.w3.org/1999/xlink" x="0px" y="0px"
	 viewBox="15.167 -16.333 1000.636 1000.678" enable-background="new 15.167 -16.333 1000.636 1000.678" xml:space="preserve">
<g>
	<path fill="#ABDBE1" d="M1012.55,482.338c0-275.417-223.254-498.671-498.671-498.671S15.209,206.921,15.209,482.338
		c0,275.373,223.254,498.627,498.671,498.627S1012.55,757.711,1012.55,482.338z"/>
	<rect x="214.66" y="191.677" fill="#464F58" width="598.396" height="398.945"/>
	<polygon fill="#F7D57B" points="859.724,676.722 819.657,602.757 813.056,590.622 214.66,590.622 208.058,602.757 167.991,676.722 
		126.729,752.901 901.031,752.901 	"/>
	<rect x="252.045" y="229.063" fill="#FFFFFF" width="523.625" height="324.13"/>
	<polygon fill="#FFFFFF" points="605.259,752.901 422.456,752.901 443.238,696.226 584.478,696.226 	"/>
	<rect x="126.729" y="752.901" fill="#464F58" width="774.301" height="23.589"/>
	<polygon fill="#464F58" points="227.135,676.722 800.624,676.722 791.298,655.984 236.461,655.984 	"/>
	<polygon fill="#464F58" points="778.099,626.604 249.66,626.604 238.759,650.834 788.956,650.834 	"/>
	<polygon fill="#464F58" points="767.368,602.757 260.347,602.757 251.962,621.494 775.758,621.494 	"/>
	<g>
		<path fill="#EF8C6C" d="M652.399,459.302c0.724-4.513,1.147-9.157,1.147-13.927c0-4.727-0.423-9.41-1.147-13.923l-29.214-4.639
			c-0.894-2.599-1.914-5.067-3.148-7.495l17.372-23.93c-5.45-7.583-12.091-14.267-19.674-19.717l-23.93,17.372
			c-2.429-1.19-4.94-2.254-7.535-3.105l-4.644-29.214c-4.513-0.763-9.196-1.147-13.923-1.147s-9.37,0.384-13.927,1.147
			l-4.639,29.214c-2.599,0.85-5.067,1.914-7.495,3.105l-23.929-17.372c-7.622,5.45-14.267,12.135-19.718,19.717l17.376,23.93
			c-1.195,2.385-2.259,4.897-3.108,7.495l-29.21,4.639c-0.767,4.513-1.151,9.196-1.151,13.923c0,4.77,0.384,9.414,1.151,13.927
			l29.21,4.639c0.85,2.599,1.914,5.11,3.108,7.495l-17.376,23.973c5.45,7.578,12.096,14.223,19.718,19.674l23.929-17.376
			c2.429,1.238,4.897,2.259,7.495,3.153l4.639,29.171c4.557,0.763,9.2,1.147,13.927,1.147s9.41-0.384,13.923-1.147l4.644-29.171
			c2.594-0.894,5.106-1.914,7.535-3.153l23.93,17.376c7.583-5.45,14.223-12.096,19.674-19.674l-17.372-23.973
			c1.234-2.385,2.254-4.897,3.148-7.495L652.399,459.302z"/>
		<path fill="#FFFFFF" d="M601.597,445.375c0,18.736-15.157,33.941-33.893,33.941s-33.897-15.205-33.897-33.941
			c0-18.693,15.161-33.893,33.897-33.893S601.597,426.682,601.597,445.375z"/>
	</g>
	<path fill="#ABDBE1" d="M471.51,435.795l85.846-85.842c16.861,4.897,35.768,0.724,49.054-12.562
		c13.286-13.286,17.459-32.192,12.562-49.054l-40.455,40.451l-25.251-8.429l-8.429-25.294l40.407-40.455
		c-16.818-4.897-35.768-0.68-49.054,12.562c-13.286,13.33-17.459,32.236-12.519,49.054l-85.842,85.846
		c-16.866-4.897-35.812-0.724-49.097,12.562c-13.243,13.286-17.416,32.188-12.519,49.054l40.407-40.412l25.294,8.389l8.433,25.294
		l-40.455,40.451c16.862,4.897,35.768,0.724,49.054-12.562C472.234,471.563,476.407,452.617,471.51,435.795z"/>
</g>
</svg>
